<?xml version="1.0" standalone="no"?>
<!DOCTYPE svg PUBLIC "-//W3C//DTD SVG 20010904//EN"
 "http://www.w3.org/TR/2001/REC-SVG-20010904/DTD/svg10.dtd">
<svg version="1.0" xmlns="http://www.w3.org/2000/svg"
 width="600.000000pt" height="600.000000pt" viewBox="0 0 600.000000 600.000000"
 preserveAspectRatio="xMidYMid meet">
<metadata>
Created by potrace 1.11, written by Peter Selinger 2001-2013
</metadata>
<g transform="translate(0.000000,600.000000) scale(0.100000,-0.100000)"
fill="#000000" stroke="none">
<path d="M992 5735 c-4 -5 -7 -85 -7 -177 l2 -168 -97 0 c-64 0 -110 -5 -134
-15 -20 -8 -39 -15 -43 -16 -5 0 -12 -7 -16 -15 -4 -8 -14 -14 -22 -14 -25 0
-123 -128 -130 -170 0 -3 -7 -22 -14 -43 -10 -30 -13 -513 -14 -2450 l-1
-2412 2489 0 2490 0 0 2420 c0 1331 -3 2427 -6 2435 -3 8 -13 32 -22 54 -9 21
-17 42 -17 47 0 5 -4 9 -10 9 -5 0 -10 6 -10 13 0 30 -129 137 -165 137 -8 0
-15 4 -15 10 0 5 -3 9 -7 9 -5 -1 -56 -1 -116 0 l-107 1 1 133 c0 72 0 152 0
178 l-1 45 -307 0 -308 -1 -3 -177 -2 -178 -255 0 -255 0 0 178 0 177 -310 1
-310 0 0 -178 0 -178 -265 0 -265 0 -1 88 c0 48 -1 128 -2 177 l-2 90 -307 1
c-270 0 -307 -2 -310 -15 -2 -9 -3 -89 -3 -178 l1 -163 -253 0 -253 0 0 175
c0 96 -3 176 -7 176 -5 1 -142 3 -306 3 -197 1 -300 -2 -305 -9z m-6 -837 c0
-119 4 -182 11 -186 6 -4 145 -7 310 -7 l298 1 5 189 c5 204 3 198 58 180 26
-9 24 5 26 -208 1 -139 -1 -171 -14 -181 -22 -19 -736 -20 -765 -1 -19 12 -20
22 -20 190 0 165 2 177 20 188 25 15 59 25 65 20 3 -3 5 -86 6 -185z m2284 -6
l0 -187 298 1 c163 1 303 2 310 3 9 1 12 46 12 189 l0 188 36 -2 c63 -5 64 -8
64 -204 0 -156 -2 -179 -17 -192 -16 -13 -69 -15 -388 -15 -282 0 -373 3 -382
13 -10 9 -13 61 -13 188 l0 176 32 20 c17 10 35 17 40 14 4 -3 8 -89 8 -192z
m-1154 -14 c-1 -143 1 -168 14 -169 8 -1 148 -2 311 -3 l296 -1 2 179 c1 99 4
182 6 186 8 14 59 1 69 -17 6 -10 11 -88 11 -181 1 -130 -2 -166 -14 -175 -22
-19 -758 -18 -774 1 -17 22 -17 321 1 349 16 26 64 35 73 13 3 -8 5 -90 5
-182z m2286 9 l3 -182 307 0 308 0 1 45 c0 25 0 107 0 183 0 98 4 137 12 138
27 3 63 -4 73 -12 16 -13 22 -51 14 -75 -4 -10 -3 -27 2 -36 5 -10 5 -18 1
-18 -4 0 -8 -18 -8 -40 0 -22 3 -40 7 -40 4 0 4 -10 -1 -23 -5 -14 -5 -30 0
-40 6 -9 6 -17 1 -17 -4 0 -7 -14 -6 -32 1 -17 -3 -36 -9 -43 -9 -8 -121 -11
-390 -10 -402 0 -404 0 -393 47 2 10 0 21 -5 24 -5 3 -5 12 0 23 6 10 6 23 1
31 -5 9 -5 19 1 26 6 7 6 15 2 17 -9 6 -8 80 1 103 3 7 1 16 -4 19 -7 4 -6 13
0 25 7 12 6 20 0 22 -6 2 1 15 15 30 16 18 31 25 44 21 20 -5 21 -14 23 -186z"/>
</g>
</svg>
